Ostrich_Running_Kinematics
version=1																											
nRows=27																											
nColumns=28																											
inDegrees=yes																											
endheader																											
time	pelvis_tilt	pelvis_list	pelvis_rotation	pelvis_tx	pelvis_ty	pelvis_tz	R_hip_extension	R_hip_abduction	R_hip_rotation	R_knee_angle	R_knee_varus	R_knee_rotation	R_ankle_angle	R_ankle_abduction	R_ankle_rotation	R_mtp_angle	R_mtp_abduction	R_mtp_rotation	L_hip_extension	L_hip_abduction	L_hip_rotation	L_knee_angle	L_knee_varus	L_knee_rotation	L_ankle_angle	L_ankle_abduction	L_mtp_angle
0.345	15.125	5.208	-1.3236	1.2427404	1.1149006	-0.8481732	66.886	-21.937	-26.693	-99.104	-18.129	-9.2358	12.238	3.4046	-6.1907	-19.578	25.986	3.3953	54.756	-14.767	-24.408	-125.59	-21.639	-20.051	107.59	3.9726	-156.42
0.35	15.208	5.238	-1.2888	1.2591182	1.1141543	-0.847074	66.936	-22.1	-26.891	-100.18	-18.582	-9.3966	12.238	3.1925	-6.448	-18.763	26.079	3.4986	55.389	-14.963	-24.061	-124.91	-21.824	-20.02	107.86	4.2484	-155.3
0.355	15.278	5.267	-1.2539	1.2755168	1.1138279	-0.8459467	66.927	-22.234	-27.095	-101.18	-19.024	-9.5687	12.239	3.0038	-6.6941	-18.143	26.161	3.5879	56.065	-15.166	-23.671	-124.18	-21.981	-19.955	107.99	4.5503	-153.93
0.36	15.332	5.295	-1.2186	1.2919427	1.1139276	-0.8447914	66.856	-22.335	-27.306	-102.08	-19.451	-9.7503	12.246	2.8397	-6.9289	-17.721	26.234	3.6612	56.78	-15.377	-23.246	-123.42	-22.111	-19.859	108.01	4.8762	-152.32
0.365	15.369	5.319	-1.1828	1.3084038	1.1144567	-0.8436093	66.718	-22.398	-27.524	-102.88	-19.862	-9.9409	12.259	2.7018	-7.1521	-17.502	26.301	3.7166	54.13	-9.7679	-27.284	-118.76	-20.328	-18.632	105.02	3.2212	-142.42
0.37	15.388	5.34	-1.1464	1.3249084	1.1154141	-0.8424013	66.512	-22.417	-27.746	-103.58	-20.252	-10.141	12.282	2.5914	-7.3634	-17.49	26.359	3.7529	54.068	-9.6009	-27.669	-117.34	-20.407	-18.352	105	3.7212	-141.8
0.375	15.389	5.359	-1.1095	1.3414651	1.1167949	-0.8411694	66.237	-22.388	-27.969	-104.18	-20.621	-10.352	12.317	2.5098	-7.5623	-17.693	26.408	3.7693	54.027	-9.4519	-28.037	-115.85	-20.468	-18.05	104.81	4.2613	-141.04
0.38	15.369	5.376	-1.072	1.3580801	1.1185889	-0.839916	65.897	-22.309	-28.191	-104.67	-20.964	-10.575	12.365	2.4571	-7.7481	-18.118	26.444	3.7658	54.008	-9.3219	-28.387	-114.3	-20.509	-17.731	104.44	4.8411	-140.16
0.385	15.328	5.392	-1.0338	1.3747603	1.1207819	-0.8386432	65.495	-22.177	-28.407	-105.07	-21.28	-10.811	12.431	2.4331	-7.9198	-18.774	26.464	3.7426	54.013	-9.2123	-28.717	-112.68	-20.527	-17.403	103.92	5.46	-139.14
0.39	15.265	5.409	-0.99538	1.3915114	1.1233556	-0.8373542	65.036	-21.992	-28.612	-105.36	-21.566	-11.062	12.517	2.4368	-8.0766	-19.672	26.462	3.7005	54.041	-9.1246	-29.025	-111.02	-20.521	-17.069	103.24	6.117	-137.98
0.395	15.181	5.429	-0.95676	1.4083378	1.1262878	-0.8360517	64.527	-21.755	-28.8	-105.56	-21.818	-11.33	12.627	2.4668	-8.2179	-20.823	26.432	3.6401	54.092	-9.0583	-29.312	-109.31	-20.492	-16.737	102.4	6.8107	-136.67
0.4	15.074	5.452	-0.91817	1.4252444	1.1295537	-0.8347379	63.97	-21.464	-28.965	-105.68	-22.033	-11.616	12.765	2.5218	-8.3438	-22.237	26.364	3.5619	54.166	-9.0122	-29.58	-107.57	-20.439	-16.409	101.41	7.5389	-135.23
0.405	14.946	5.48	-0.87984	1.442234	1.1331244	-0.8334158	63.371	-21.121	-29.103	-105.71	-22.207	-11.921	12.936	2.6004	-8.4547	-23.924	26.248	3.4662	54.259	-8.9838	-29.83	-105.8	-20.361	-16.092	100.28	8.2992	-133.64
0.41	14.798	5.512	-0.84183	1.4593082	1.1369681	-0.8320872	62.731	-20.724	-29.209	-105.67	-22.335	-12.246	13.145	2.701	-8.5517	-25.892	26.073	3.3533	54.368	-8.9698	-30.064	-104.01	-20.26	-15.787	99.006	9.0878	-131.93
0.415	14.629	5.547	-0.80429	1.4764684	1.1410522	-0.8307543	62.055	-20.275	-29.28	-105.55	-22.415	-12.592	13.397	2.8224	-8.6369	-28.146	25.826	3.2232	54.489	-8.9667	-30.286	-102.2	-20.134	-15.498	97.596	9.9006	-130.11
0.42	14.44	5.586	-0.76707	1.4937145	1.1453434	-0.8294189	61.347	-19.777	-29.315	-105.37	-22.445	-12.959	13.697	2.9633	-8.7123	-30.684	25.491	3.0763	54.615	-8.9701	-30.5	-100.38	-19.985	-15.224	96.057	10.732	-128.18
0.425	14.231	5.626	-0.73007	1.5110469	1.1498077	-0.8280826	60.615	-19.234	-29.311	-105.13	-22.426	-13.345	14.051	3.1223	-8.7803	-33.499	25.055	2.9134	54.743	-8.9756	-30.709	-98.56	-19.813	-14.968	94.39	11.576	-126.16
0.43	14.003	5.669	-0.6931	1.5284646	1.1544114	-0.8267475	59.869	-18.654	-29.268	-104.86	-22.359	-13.748	14.462	3.298	-8.8435	-36.576	24.504	2.7356	54.869	-8.9808	-30.916	-96.738	-19.619	-14.73	92.602	12.427	-124.07
0.435	13.753	5.715	-0.65591	1.5459656	1.1591201	-0.8254144	59.12	-18.048	-29.184	-104.56	-22.248	-14.165	14.936	3.4888	-8.9049	-39.89	23.83	2.5446	54.991	-8.9846	-31.12	-94.924	-19.403	-14.509	90.697	13.277	-121.92
0.44	13.483	5.767	-0.61822	1.563548	1.1639001	-0.824085	58.38	-17.428	-29.059	-104.26	-22.096	-14.591	15.476	3.6928	-8.9682	-43.412	23.029	2.3424	55.109	-8.9875	-31.322	-93.124	-19.167	-14.306	88.679	14.12	-119.72
0.445	13.194	5.826	-0.57998	1.5812073	1.1687175	-0.8227607	57.659	-16.805	-28.894	-103.96	-21.908	-15.021	16.087	3.9082	-9.0376	-47.103	22.101	2.1317	55.224	-8.9919	-31.518	-91.346	-18.914	-14.12	86.553	14.948	-117.5
0.45	12.887	5.894	-0.54103	1.5989396	1.173538	-0.8214431	56.965	-16.193	-28.692	-103.68	-21.691	-15.45	16.774	4.1335	-9.1167	-50.923	21.056	1.9153	55.339	-9.0008	-31.707	-89.601	-18.646	-13.952	84.326	15.753	-115.27
0.455	12.565	5.971	-0.50142	1.6167395	1.178325	-0.8201333	56.305	-15.601	-28.458	-103.43	-21.451	-15.873	17.539	4.3668	-9.2087	-54.83	19.906	1.6967	55.459	-9.0171	-31.884	-87.899	-18.365	-13.799	82.003	16.526	-113.03
0.46	12.233	6.057	-0.46113	1.6346013	1.1830419	-0.8188326	55.683	-15.04	-28.198	-103.23	-21.194	-16.285	18.387	4.6067	-9.3163	-58.781	18.67	1.4795	55.587	-9.0442	-32.047	-86.25	-18.076	-13.662	79.592	17.258	-110.8
0.465	11.894	6.153	-0.42024	1.6525193	1.1876538	-0.8175423	55.105	-14.518	-27.918	-103.09	-20.927	-16.683	19.32	4.8517	-9.4421	-62.741	17.367	1.2668	55.725	-9.0845	-32.193	-84.661	-17.781	-13.537	77.102	17.941	-108.59
0.47	11.552	6.258	-0.37892	1.6704874	1.1921267	-0.816264	54.577	-14.043	-27.624	-103.02	-20.659	-17.063	20.34	5.1005	-9.589	-66.679	16.021	1.0612	55.875	-9.1407	-32.319	-83.14	-17.482	-13.423	74.542	18.567	-106.4
0.475	11.209	6.374	-0.33742	1.6884996	1.1964274	-0.8149995	54.106	-13.623	-27.323	-103.04	-20.396	-17.422	21.45	5.3515	-9.7596	-70.573	14.651	0.8647	56.038	-9.216	-32.421	-81.693	-17.179	-13.316	71.923	19.129	-104.24
